<svg width="101" height="101" viewBox="0 0 101 101" fill="none" xmlns="http://www.w3.org/2000/svg">
<path d="M50.5823 96.848V61.4636L57.6977 56.3674L68.1784 54.6366L71.4476 56.3674L81.9284 55.7905L86.6399 51.5598L93.4668 52.6175L93.9476 92.9058L81.2553 93.5788L60.4861 95.1173L52.4092 98.3865L50.5823 96.848Z" fill="#1B77AB"/>
<path d="M7.60168 91.4634L8.08252 52.5212H13.6594L22.794 56.9443L30.2324 56.7866L34.6209 54.0597L50.4862 61.4635L49.8131 96.0788L48.467 97.6173L38.6593 93.7711L7.60168 91.4634Z" fill="#1B77AB"/>
<path d="M38.7159 71.4255H14.3587L14.0046 86.6455L39.1094 86.1979L38.7159 71.4255Z" fill="white"/>
<path d="M14.5566 63.2699V61.5736V61.1646L14.8308 61.0596V60.8197L17.8121 60.7169L24.0317 60.8197L27.3728 60.7169L28.4693 60.8197L28.8805 61.4537V66.8166L29.3774 67.8617L30.5939 68.8555H38.3041L38.8182 69.181L39.1094 70.4489L38.6982 71.2371H35.4771H22.918H16.4242L15.2591 71.4256L14.5566 71.0144V70.2091V63.2699Z" fill="white"/>
<path d="M30.6049 68.0725V62.0581L31.0639 61.6449L37.767 67.0624L37.3997 68.0725H30.6049Z" fill="white"/>
<path d="M19.3086 47.3438L18.8867 47.6445L18.2188 48.1758L17.4609 49L17.0625 49.7031L16.8711 50.4648L16.8945 51.2266L17.082 51.9023L17.4414 52.6172L17.793 53.1211L18.2773 53.6328L18.7773 54L19.2148 54.1953L19.7344 54.375L20.4141 54.5117L20.4883 54.2734L20.5391 54V53.3125V52.5078L20.5664 51.75L20.6523 51.4297L20.8281 51.2578L21.0273 51.1172L21.332 51.0352H21.7188L21.9531 51.0938L22.1797 51.2344L22.3711 51.4648L22.5391 51.8789L22.6172 52.4766V53.1875V53.918L22.6797 54.2969L22.8438 54.6289L23.0742 54.9102L23.4258 55.1172L24.082 55.3164L24.7539 55.3555H25.5547L26.0859 55.2617L26.4492 55.125L26.7109 54.9766L26.875 54.8086L27.0391 54.5938L27.1445 54.3516L27.2344 53.8242V53.1445V52.6602L27.25 52.2148L27.3438 51.8789L27.5625 51.7227L27.668 51.5234L27.875 51.4219L28.2695 51.3594L28.5781 51.4023L28.8047 51.4961L28.9961 51.6602L29.1641 51.9141L29.2656 52.2148L29.3281 52.6602L29.3086 53.1445L29.3477 53.543V53.7227L29.3086 54.0508L29.3281 54.2773L29.4336 54.4492L29.5547 54.5469L29.8203 54.4961L30.4766 54.2773L31.0938 53.918L31.5273 53.543L31.8594 53.1445L32.082 52.7422L32.2539 52.293L32.3663 51.6211V50.9982L32.1674 50.119L31.7592 49.313L31.2045 48.5384L30.2729 47.7011L29.289 47.0207L28.4621 46.6055L27.3421 46.1875L26.1489 45.9336L25.0813 45.8398H24.0781L23.125 45.9336L22.4414 46.0547L21.918 46.1875L21.3281 46.3672L20.707 46.6055L20.0391 46.9102L19.6992 47.1016L19.3086 47.3438Z" fill="#DE9A52"/>
<path d="M100.089 74.4749C100.09 81.7735 100.09 88.9958 100.089 96.2181C100.089 97.8581 99.3663 98.4686 97.4275 98.4683C84.1318 98.4661 70.836 98.4664 57.5404 98.4537C56.8154 98.453 56.2441 98.5657 55.6904 99.0323C52.6787 101.57 47.5915 101.618 44.4904 99.1164C43.858 98.6063 43.2472 98.4518 42.4212 98.4527C29.3065 98.4664 16.1916 98.4595 3.07681 98.4574C2.59482 98.4573 2.11744 98.4546 1.64142 98.3518C0.701956 98.1488 0.229843 97.6218 0.109703 96.8427C0.0749465 96.6173 0.0960927 96.3856 0.0960954 96.1567C0.0963134 83.0345 0.0968684 69.9123 0.0978347 56.7901C0.0979534 55.1485 0.759063 54.5846 2.68229 54.5824C3.31542 54.5817 3.94891 54.5708 4.58156 54.5854C5.11717 54.5978 5.35278 54.4006 5.3428 53.9483C5.32822 53.2874 5.33834 52.626 5.34207 51.9648C5.34913 50.7149 5.81699 50.3105 7.27033 50.3086C9.32046 50.3059 11.3707 50.2979 13.4207 50.3164C14.0165 50.3218 14.2851 50.2105 14.4336 49.6372C15.1303 46.9478 17.3835 45.4341 20.2295 44.4144C20.5042 44.316 20.792 44.2437 21.1828 44.1267C20.4138 43.2017 19.6248 42.3458 19.0278 41.3878C18.8248 41.0621 18.4918 41.2303 18.2267 41.2927C16.7781 41.6332 15.3353 41.9913 13.8911 42.3451C13.7467 42.3805 13.6088 42.435 13.4638 42.4682C12.4893 42.6913 11.7653 42.4284 11.5603 41.7806C11.3836 41.2224 11.814 40.6865 12.6946 40.4565C14.0157 40.1115 15.349 39.7998 16.6774 39.4746C17.0191 39.3909 17.3617 39.3094 17.7794 39.2086C17.3932 37.9797 16.8531 36.8211 16.7045 35.5835C16.6696 35.2923 16.3233 35.2984 16.0577 35.2747C14.4407 35.1302 12.8224 34.9994 11.194 35.0027C10.7962 35.0035 10.4006 34.9967 10.0839 34.761C9.70281 34.4774 9.44402 34.1345 9.62208 33.6886C9.81287 33.2108 10.223 32.9165 10.8333 32.9194C12.3084 32.9267 13.7853 32.8499 15.2571 33.0329C16.4591 33.1824 16.5228 33.0952 16.564 32.0839C16.7032 28.6706 17.5853 25.3995 19.304 22.3018C19.5478 21.8623 19.5889 21.4724 19.4664 20.9966C18.4245 16.9503 18.1317 12.8697 18.6986 8.74633C18.9741 6.74276 19.3912 4.7797 20.5131 2.97382C21.5694 1.27345 23.1751 0.662357 25.4001 1.10231C28.2524 1.66629 30.6557 2.97798 32.9599 4.42238C35.1869 5.81837 37.3137 7.32181 39.2551 8.99952C39.6384 9.33082 39.9846 9.39558 40.5283 9.27861C46.7641 7.93714 53.0171 7.86239 59.2569 9.24267C60.1102 9.43143 60.6361 9.26555 61.2414 8.7705C64.4532 6.144 67.848 3.71047 71.8806 1.99977C73.1761 1.45023 74.4994 1.0115 76.0033 0.998697C77.602 0.985078 78.7105 1.57254 79.4672 2.70406C80.6893 4.53162 81.1434 6.55564 81.4323 8.59726C81.7425 10.7889 81.8623 12.9881 81.6612 15.2056C81.4844 17.1554 81.2685 19.092 80.7511 20.9989C80.648 21.3788 80.6297 21.7103 80.85 22.0903C82.7153 25.3083 83.5822 28.7407 83.7721 32.2978C83.8082 32.9754 84.1231 33.1405 84.8129 33.0634C86.2513 32.9026 87.6977 32.8963 89.1443 32.9142C90.0646 32.9255 90.5007 33.255 90.5208 33.9169C90.5418 34.6098 90.0842 34.9616 89.135 35.0078C87.5439 35.0853 85.9537 35.1759 84.3628 35.2556C83.8674 35.2804 83.6707 35.4708 83.5691 35.904C83.3597 36.7973 83.056 37.6774 82.7358 38.5485C82.5702 38.9988 82.5977 39.2251 83.2233 39.3632C84.5027 39.6458 85.7609 39.9993 87.0203 40.3431C88.3958 40.7185 88.9195 41.2741 88.6068 41.9817C88.3021 42.6712 87.695 42.7682 86.2766 42.3869C84.901 42.017 83.5124 41.6808 82.1403 41.302C81.585 41.1487 81.2398 41.2449 80.9906 41.7033C80.526 42.5581 79.7946 43.2763 79.1321 44.0947C80.0923 44.512 81.0674 44.7695 81.9178 45.2529C83.893 46.3757 85.3792 47.7809 85.7696 49.8318C85.8609 50.3114 86.1926 50.3081 86.6012 50.3078C88.6815 50.3063 90.7618 50.3055 92.8421 50.3094C94.3107 50.3121 94.8339 50.7618 94.8418 52.0201C94.8459 52.6813 94.857 53.3428 94.8369 54.0035C94.8241 54.4265 95.0309 54.6035 95.5323 54.5948C96.3761 54.5803 97.2207 54.5819 98.0646 54.5935C99.4966 54.6134 100.088 55.1179 100.088 56.3179C100.09 62.3448 100.089 68.3717 100.089 74.4749ZM53.0447 10.5847C51.3601 10.4609 49.675 10.5498 47.9905 10.5815C45.3869 10.6305 42.8215 10.9432 40.3742 11.69C39.3525 12.0017 38.6645 11.8677 37.9817 11.2181C36.1141 9.44139 33.9903 7.89961 31.7311 6.49119C29.5952 5.15957 27.4225 3.88456 24.7765 3.33814C23.9567 3.16884 23.4409 3.41574 23.0421 3.97905C22.3506 4.9556 22.0078 6.0437 21.7714 7.13826C20.8214 11.5364 20.8903 15.9417 22.0839 20.292C22.4428 21.6003 22.0964 22.6463 21.4853 23.7707C19.9966 26.5097 19.4032 29.4224 19.1945 32.4132C19.14 33.1944 19.5283 33.4276 20.3304 33.5266C22.2701 33.7658 24.1573 34.1979 26.0094 34.7358C26.9998 35.0235 27.3785 35.4851 27.1754 36.1148C26.9794 36.7225 26.3147 36.926 25.3181 36.7058C23.9501 36.4036 22.5845 36.089 21.2036 35.8349C20.7044 35.7431 20.1832 35.5122 19.5872 35.7416C19.5988 36.5525 19.9779 37.275 20.2217 38.0265C20.428 38.6625 20.8395 38.7642 21.5631 38.6654C23.0758 38.4588 24.6019 38.2709 26.14 38.3145C26.9778 38.3383 27.5553 38.8244 27.5029 39.397C27.44 40.0838 26.8952 40.3101 26.1373 40.3564C24.9675 40.4278 23.8023 40.5528 22.6344 40.6494C21.9378 40.707 21.7898 40.9716 22.2036 41.4458C22.6317 41.9364 23.0722 42.4192 23.506 42.9062C23.9491 43.4037 24.5102 43.5826 25.2728 43.6395C28.6296 43.89 31.4516 45.0892 33.2863 47.5101C34.0306 48.4921 34.8925 49.087 36.1552 49.3774C36.3583 49.4241 36.5554 49.4896 36.7549 49.5471C42.4964 51.203 48.399 51.5485 54.4012 51.0971C58.1779 50.8131 61.8094 50.0454 65.3075 48.8136C65.7708 48.6505 66.1124 48.436 66.3717 48.052C68.1413 45.4314 70.8872 43.913 74.3815 43.6937C75.9652 43.5943 76.779 43.0177 77.5374 42.0716C77.6049 41.9873 77.6792 41.907 77.7483 41.8236C78.4374 40.9918 78.3001 40.677 77.0933 40.5417C76.0813 40.4282 75.056 40.3891 74.0349 40.3461C73.5336 40.325 73.1394 40.1706 72.931 39.7976C72.7281 39.4341 72.748 39.0391 73.0634 38.7171C73.4152 38.3579 73.9142 38.2491 74.4489 38.2737C76.0111 38.3455 77.5744 38.4126 79.1212 38.6254C79.3938 38.6629 79.6893 38.7636 79.837 38.4914C80.332 37.5793 80.702 36.6374 80.7741 35.5644C80.3224 35.6114 79.995 35.638 79.6705 35.6806C77.9407 35.9073 76.2662 36.3287 74.5872 36.7298C73.8782 36.8991 73.383 36.704 73.1237 36.1599C72.8572 35.6009 73.1443 35.1656 73.7393 34.8829C73.9987 34.7596 74.2914 34.6826 74.5753 34.6C76.3431 34.0851 78.1539 33.7017 80.0026 33.4799C80.8357 33.3799 81.0633 33.0862 81.0476 32.3862C80.9694 28.8933 79.96 25.607 78.1081 22.4974C77.8463 22.0578 77.8112 21.6488 77.9394 21.1793C79.114 16.8779 79.3373 12.5355 78.5936 8.16908C78.3548 6.76664 78.0549 5.36045 77.1973 4.09526C76.7553 3.44308 76.229 3.1587 75.2755 3.37132C73.8824 3.68197 72.6249 4.21165 71.4153 4.83172C68.1772 6.49166 65.2592 8.49743 62.6799 10.8344C61.7255 11.6992 60.8482 12.115 59.3895 11.6084C57.4363 10.93 55.3145 10.7499 53.0447 10.5847ZM92.1902 87.2175C92.1891 82.0559 92.1871 76.8943 92.1871 71.7327C92.1872 65.6303 92.1757 59.5279 92.2082 53.4257C92.212 52.709 91.9434 52.4984 91.1233 52.5268C89.6786 52.5769 88.2293 52.5729 86.7835 52.5419C85.9976 52.525 85.5883 52.747 85.1967 53.374C83.8986 55.4519 81.9722 56.8391 78.9998 56.8237C78.6226 56.8217 78.2924 56.9131 77.965 57.0515C76.2614 57.7718 74.5439 57.7749 72.8313 57.0863C72.3838 56.9063 71.9401 56.7906 71.4425 56.828C69.9319 56.9417 68.6597 56.4822 67.5802 55.6275C67.2082 55.3331 66.842 55.2438 66.3549 55.3477C63.7844 55.8959 61.2182 56.4635 58.7849 57.3655C56.2681 58.2986 53.7937 59.3043 51.9592 61.127C51.5684 61.5152 51.2187 61.8833 51.2196 62.4608C51.2372 73.623 51.2325 84.7853 51.2372 95.9475C51.2373 96.1909 51.1403 96.4903 51.4684 96.6382C51.8015 96.7884 52.0247 96.5449 52.2642 96.4034C54.0751 95.3331 56.0129 94.4676 58.0905 93.826C65.2918 91.6022 72.7891 90.7315 80.3963 90.4798C83.972 90.3615 87.5673 90.292 91.1317 90.7505C91.877 90.8464 92.2602 90.6928 92.2038 89.9627C92.1372 89.1019 92.1895 88.2346 92.1902 87.2175ZM12.0065 52.4991C10.9817 52.5008 9.95656 52.5177 8.93235 52.4988C8.26025 52.4864 7.98196 52.6707 7.98297 53.2921C8.00291 65.5463 8.00154 77.8005 7.98918 90.0548C7.98862 90.6181 8.20033 90.8467 8.88227 90.7854C10.2574 90.6619 11.6342 90.5026 13.0139 90.4725C17.8953 90.366 22.7636 90.4951 27.6158 91.0396C34.7682 91.8422 41.741 93.0976 47.9722 96.3806C48.5714 96.6963 48.7935 96.4913 48.8167 95.9755C48.8246 95.7977 48.8277 95.6196 48.8277 95.4417C48.8291 84.8656 48.7836 74.2892 48.8799 63.7137C48.8947 62.0892 48.218 61.0607 46.7808 60.1316C42.8932 57.6183 38.4186 56.2551 33.7558 55.2236C33.3408 55.1318 33.1493 55.3183 32.9094 55.5158C31.682 56.5261 30.206 57.0145 28.4926 56.9599C28.0565 56.946 27.6626 57.0157 27.2679 57.1597C25.6501 57.7502 24.0415 57.713 22.4685 57.0495C22.0452 56.871 21.6196 56.8337 21.1624 56.8197C18.6584 56.7429 16.5424 55.8787 15.4633 53.988C14.7366 52.7148 13.858 52.3232 12.3666 52.5099C12.308 52.5173 12.2463 52.5075 12.0065 52.4991ZM82.4319 48.6549C79.1184 45.1225 73.6801 45.0378 70.128 47.4386C68.4639 48.5634 67.7018 50.0701 67.9005 51.8732C68.0623 53.3412 69.2554 54.384 70.8073 54.4543C71.0749 53.852 71.0037 53.2138 71.0152 52.5857C71.0332 51.6084 71.3015 51.2117 72.0136 51.2462C73.1059 51.2991 72.9316 52.0148 72.9509 52.6094C72.9658 53.0666 72.9283 53.5257 72.9623 53.9814C73.0202 54.7563 73.574 55.1969 74.6104 55.3395C76.0271 55.5344 77.126 55.2734 77.4411 54.6315C77.5523 54.4049 77.5718 54.1375 77.5843 53.8869C77.6057 53.4557 77.5827 53.023 77.5892 52.591C77.6041 51.6044 78.0008 51.0726 78.6919 51.1012C79.3201 51.1272 79.6202 51.636 79.6509 52.6043C79.6712 53.2438 79.4996 53.9056 79.795 54.5287C82.8811 54.0567 84.1344 50.6479 82.4319 48.6549ZM18.004 48.405C16.6563 49.7139 16.552 51.1517 17.4652 52.6485C18.0772 53.6517 18.9993 54.3554 20.4073 54.5019C20.6213 54.034 20.519 53.624 20.5361 53.2231C20.5545 52.7917 20.5406 52.3593 20.5472 51.9275C20.5548 51.4276 20.841 51.0763 21.4325 51.0262C22.0355 50.9751 22.3469 51.3043 22.4929 51.7782C22.6864 52.4061 22.6003 53.042 22.6069 53.6748C22.6192 54.8485 23.2774 55.345 24.8777 55.3666C26.5152 55.3887 27.181 54.9348 27.2308 53.7472C27.25 53.2903 27.2199 52.8318 27.2466 52.3754C27.2751 51.8862 27.4628 51.4493 28.1305 51.3801C28.8701 51.3035 29.1547 51.756 29.2661 52.2508C29.3603 52.6694 29.2977 53.1113 29.3397 53.5405C29.3725 53.8764 29.1755 54.2542 29.5396 54.5394C31.0422 54.2984 32.1397 53.2377 32.3187 51.9736C32.5958 50.0177 31.5322 48.5838 29.859 47.4038C26.3312 44.916 20.8921 45.4503 18.004 48.405ZM38.3781 52.2558C37.2101 51.9746 36.0421 51.6934 34.8188 51.3989C34.7851 52.0124 34.756 52.5405 34.7273 53.0621C34.8331 53.1201 34.9013 53.1743 34.9821 53.1985C35.2084 53.2662 35.4386 53.3257 35.6696 53.3813C40.7163 54.5964 45.5406 56.189 49.5107 59.2169C49.8721 59.4925 50.1157 59.4167 50.4288 59.1738C51.3822 58.4341 52.3686 57.7289 53.4798 57.1555C56.9839 55.3474 60.8212 54.2514 64.7647 53.3801C65.0786 53.3107 65.419 53.2961 65.644 53.049C65.6088 52.4647 65.543 51.8906 65.2877 51.2349C56.4885 53.9547 47.5624 54.2824 38.3781 52.2558Z" fill="#162831"/>
<path d="M59.1107 71.357C63.9775 69.719 68.9523 68.6985 74.0913 68.2068C77.1458 67.9145 80.2052 67.7993 83.2748 67.798C83.4253 67.7979 83.5762 67.7948 83.7264 67.8012C84.6884 67.8419 85.3051 68.2535 85.3206 68.8624C85.337 69.5045 84.709 69.9538 83.6928 69.9738C82.3081 70.0009 80.9213 69.9672 79.5376 70.0102C72.2306 70.2372 65.1353 71.2853 58.4554 73.9239C57.4356 74.3267 56.9071 74.2601 56.5779 73.7222C56.2137 73.127 56.488 72.4946 57.3456 72.0822C57.893 71.819 58.4799 71.6143 59.1107 71.357Z" fill="#162831"/>
<path d="M66.4569 76.4751C68.1157 76.1721 69.6968 75.8626 71.2871 75.5911C72.4425 75.3939 73.2393 75.6971 73.3646 76.3232C73.5009 77.0039 72.8445 77.4544 71.6493 77.6459C67.4437 78.3196 63.323 79.2455 59.3991 80.7227C58.987 80.8779 58.5814 81.047 58.1612 81.1847C57.5495 81.385 56.9363 81.4127 56.5948 80.8423C56.2472 80.2618 56.4438 79.7175 57.0991 79.3936C57.8233 79.0355 58.5926 78.7327 59.3703 78.4633C61.6545 77.6721 63.9927 77.0112 66.4569 76.4751Z" fill="#162831"/>
<path d="M67.0974 64.2518C64.168 64.8869 61.355 65.6156 58.6541 66.6278C58.4893 66.6895 58.3161 66.7354 58.1515 66.7974C57.4401 67.0654 56.8474 66.9707 56.4689 66.3646C56.1359 65.8315 56.4183 65.2689 57.198 64.9352C58.379 64.4298 59.607 64.0144 60.8585 63.6488C63.4174 62.9014 66.03 62.322 68.6826 61.8683C68.8874 61.8332 69.0996 61.8254 69.3091 61.8139C69.9804 61.7771 70.5304 61.9414 70.6644 62.5591C70.8005 63.1865 70.4042 63.6022 69.7195 63.7622C68.8821 63.9578 68.0206 64.0798 67.0974 64.2518Z" fill="#162831"/>
<path d="M12.316 76.7505C12.3212 71.7184 12.3259 66.7626 12.333 61.8068C12.3334 61.5275 12.3327 61.2465 12.3669 60.9693C12.5175 59.7514 13.3112 59.0311 14.7614 59.0221C19.7626 58.9911 24.7643 59.0093 29.7657 59.0284C30.7368 59.0321 31.542 59.3801 32.2431 59.9777C34.9547 62.2889 37.6965 64.5748 40.4319 66.8661C41.0603 67.3925 41.3622 67.9835 41.3576 68.7639C41.3249 74.2534 41.3425 79.743 41.3384 85.2327C41.3373 86.695 40.1622 87.7736 38.42 87.7714C31.041 87.7625 23.6627 88.0685 16.2832 87.8084C13.8442 87.7224 12.3366 86.4429 12.3189 84.3748C12.2974 81.8589 12.3153 79.3428 12.316 76.7505ZM25.8082 71.2107C29.7878 71.2117 33.7677 71.1943 37.7469 71.2281C38.6137 71.2354 38.9253 71.0174 38.8774 70.276C38.8122 69.2658 38.7814 69.1828 37.6907 69.1811C35.7914 69.1781 33.892 69.186 31.9927 69.1839C29.9743 69.1817 28.7489 68.1538 28.7345 66.4364C28.7217 64.9107 28.6982 63.3841 28.7464 61.8593C28.7684 61.1646 28.4991 60.9193 27.6616 60.9251C23.7426 60.9524 19.8231 60.9345 15.9038 60.9386C14.7311 60.9398 14.5515 61.0932 14.5493 62.102C14.5433 64.823 14.571 67.5443 14.5322 70.265C14.5218 70.9979 14.8109 71.2339 15.6785 71.2249C18.9943 71.1905 22.311 71.2107 25.8082 71.2107ZM38.2049 84.3715C31.2476 84.3709 24.2902 84.3717 17.3329 84.3672C16.6714 84.3668 16.0079 84.2969 15.349 84.324C14.59 84.3551 14.4051 84.7066 14.8259 85.2434C15.1069 85.602 15.528 85.7998 16.0262 85.8546C16.5925 85.9168 17.163 85.9902 17.7319 85.9913C24.1772 86.0038 30.6226 86.0027 37.0679 86.0082C37.4637 86.0085 37.8518 85.9905 38.2138 85.8425C38.6357 85.67 38.819 85.3654 38.8526 84.9863C38.8801 84.6769 38.8007 84.4245 38.2049 84.3715ZM30.1862 78.6269C30.2222 78.5043 30.2639 78.3826 30.2934 78.2589C30.6839 76.6228 29.3697 74.6928 27.6777 74.5341C26.6379 74.4366 25.5779 74.4874 24.527 74.4824C24.1303 74.4805 23.8006 74.5853 23.8 74.9914C23.797 77.0895 23.7986 79.1876 23.7986 81.4219C24.6256 81.4219 25.3669 81.4213 26.1083 81.422C28.3793 81.4242 29.5779 80.6371 30.1862 78.6269ZM18.5983 80.1703C18.6045 78.9225 18.5134 78.9546 19.9386 78.9831C19.9987 78.9843 20.0595 78.9829 20.1192 78.9775C21.6755 78.8363 22.4811 77.9572 22.4263 76.4609C22.3807 75.2169 21.4767 74.4291 19.993 74.374C19.3011 74.3483 18.6065 74.3799 17.9134 74.3701C17.1941 74.3598 16.8943 74.6246 16.9044 75.2492C16.9336 77.0542 16.9078 78.8597 16.916 80.665C16.9191 81.3359 17.6606 81.7123 18.3145 81.366C18.7941 81.112 18.5283 80.6701 18.5983 80.1703ZM35.8657 78.4456C36.3084 77.7804 35.9734 77.4686 35.1485 77.3981C34.9094 77.3776 34.6656 77.3651 34.4265 77.3798C33.7049 77.424 33.4052 77.1865 33.4255 76.5443C33.4593 75.4798 33.419 75.4789 34.6446 75.4751C34.9759 75.4741 35.3073 75.4721 35.6386 75.472C36.0584 75.4718 36.4482 75.4199 36.4902 74.9768C36.5342 74.5121 36.1003 74.4143 35.7158 74.4053C34.664 74.3806 33.6094 74.3891 32.5579 74.4248C32.0434 74.4422 31.7468 74.6935 31.7492 75.171C31.7589 77.0767 31.7575 78.9824 31.7486 80.8881C31.7468 81.279 31.9557 81.3968 32.4018 81.4378C33.2814 81.5184 33.5025 81.1787 33.454 80.5084C33.4121 79.9287 33.2581 79.2401 33.5547 78.7862C33.9352 78.2039 35.0781 78.7027 35.8657 78.4456ZM31.2094 66.2267C31.1719 66.9676 31.5856 67.2771 32.4674 67.2509C33.5773 67.2179 34.6898 67.2514 35.8011 67.2426C36.1172 67.2401 36.4716 67.3165 36.6219 67.1531C34.8267 65.6054 33.0484 64.0723 31.2089 62.4864C31.2089 63.6791 31.2089 64.8835 31.2094 66.2267Z" fill="#1B2E39"/>
<path d="M27.2056 75.6902C28.7566 76.0539 28.8618 77.5402 28.5874 78.7664C28.3511 79.8226 27.5402 80.2193 26.1903 80.1732C25.6266 80.1539 25.4645 79.9492 25.4714 79.5164C25.4872 78.5257 25.5283 77.532 25.4572 76.5448C25.4026 75.7871 25.7479 75.5249 26.5943 75.6305C26.7723 75.6527 26.9535 75.6568 27.2056 75.6902Z" fill="#1B2E39"/>
<path d="M20.7522 77.4368C20.3846 77.6675 20.018 77.7154 19.6303 77.742C18.9114 77.7914 18.478 77.6343 18.5509 77.0334C18.5724 76.8559 18.5468 76.6757 18.5495 76.4968C18.5571 75.9765 18.3385 75.3674 19.5352 75.3979C20.614 75.4253 21.1164 75.768 21.1081 76.5864C21.1053 76.8675 21.0309 77.1458 20.7522 77.4368Z" fill="#1B2E39"/>
<path d="M23.5703 3.46875L23.832 3.36328L24.0898 3.30469L24.2812 3.27734L24.5938 3.30469L25.2617 3.44531L25.9844 3.63672L27.0781 4.01172L28.043 4.42969L29.3438 5.08203L30.8633 5.95312L31.4609 6.33594L32.6172 7.05859L33.7812 7.83984L35.0156 8.71875L35.6797 9.22266L36.4805 9.875L36.9688 10.3164L37.5781 10.8477L38.1133 11.3477L38.4961 11.6133L38.7539 11.7422L39.0977 11.832L39.4453 11.8672L40.0547 11.7891L40.9688 11.5273L42.9325 11.0821L44.3401 10.8338L45.5746 10.7188L46.4392 10.6539L47.8008 10.5859L49.6211 10.543L51.3867 10.5195L52.7305 10.5664L54.4102 10.6992L55.6875 10.8164L57.1523 11.0312L58.5781 11.3594L59.1406 11.5312L59.4961 11.6523L59.9219 11.7695L60.332 11.8242H60.75L61.0156 11.793L61.3086 11.7188L61.75 11.5547L61.9805 11.3828L62.3164 11.1523L62.9258 10.6367L63.6211 10.0078L64.9648 8.91797L65.9492 8.17969L67.1641 7.33984L68.7148 6.33203L69.9531 5.62109L71.4297 4.83203L72.75 4.19922L73.8398 3.77734L74.6328 3.51953L75.4258 3.34375L75.7227 3.31641H75.9414H76.1211L76.3516 3.38672L76.5508 3.47266L76.7734 3.62109L76.9414 3.77734L77.2188 4.11328L77.6133 4.78516L77.8047 5.20703L78.0234 5.76172L78.2383 6.46875L78.4922 7.59766L78.6719 8.62891L78.8203 9.83594L78.9609 11.3359L79.0273 13.0195L78.9922 14.625L78.8867 15.9688L78.6737 17.8499L78.1768 20.0602L77.8513 21.5166V21.9963L78.074 22.4589L78.3996 23.0758L78.8867 23.9324L79.599 25.5259L80.1986 27.1022L80.627 28.7642L81.0382 31.3685V32.9791L80.627 33.2875L80.1986 33.5103L78.8867 33.6131L76.6519 34.0071L74.5273 34.6068L73.6878 34.8981L73.0881 35.3093L72.951 35.8233L73.0881 36.2345L73.5336 36.7143L74.0476 36.8171L74.7843 36.7143L76.5663 36.2345L78.8867 35.8233L79.2945 35.7426L79.9892 35.6477L80.7638 35.5677L80.7038 36.1725L80.389 37.292L79.9142 38.3415L79.7843 38.5914L79.6093 38.6713H79.3694L78.6098 38.5464L76.4258 38.3665L74.2967 38.2665L73.9369 38.2915L73.642 38.3665L73.3555 38.4766L73.0352 38.7227L72.8867 38.9492L72.8086 39.1641V39.4805L72.8867 39.7188L73.0352 39.9648L73.2383 40.1328L73.5039 40.2578L73.7891 40.3398L74.2422 40.3711L74.9922 40.3945L75.9688 40.457L76.793 40.5117L77.3516 40.5781L77.7188 40.6602L77.9727 40.7656L78.1289 40.8828L78.1602 41.1562L78.0039 41.4883L77.4336 42.1953L76.9219 42.7461L76.4414 43.0938L75.9453 43.3633L75.4609 43.5234L74.9727 43.6367L74.0625 43.7227L73.5703 43.7695L72.8594 43.8789L72.1562 44.0352L71.5859 44.1875L70.8945 44.4258L70.1289 44.7617L69.3203 45.207L68.5625 45.7148L67.832 46.3281L67.2656 46.9062L66.7266 47.5547L66.3594 48.0586L66.2188 48.2344L66.0078 48.4375L65.8008 48.5898L65.4141 48.7695L63.9648 49.2617L62.2539 49.7695L60.543 50.1758L59.3711 50.4141L58.1445 50.6523L56.582 50.8828L54.4492 51.1055L53.1875 51.1758H46.4392L42.0758 50.7126L37.5696 49.8217L34.9139 48.9821L34.2114 48.4852L33.8173 48.0912L33.1662 47.3715L32.361 46.4292L30.9731 45.3669L29.3797 44.4931L27.5463 43.9276L25.9529 43.6706L24.7193 43.5678L23.9482 43.2937L23.5884 42.9853L22.509 41.8202L21.9766 41.1719V41.0352V40.918L22.0703 40.8086L22.2695 40.7109L22.5625 40.6602L23.5884 40.5664L25.4102 40.4141L26.3594 40.3438L26.7461 40.2656L27.1133 40.1133L27.3359 39.9023L27.4375 39.6719L27.5078 39.4805V39.2109L27.4102 38.9414L27.2383 38.6953L26.9258 38.4883L26.5156 38.3516L26.0156 38.293H25.4258L24.1641 38.3516L22.5859 38.5195L21.293 38.6914L20.8672 38.6719L20.6602 38.6094L20.4414 38.4414L20.2969 38.2109L20.0703 37.6055L19.668 36.457L19.5859 35.7344L19.8672 35.6719L20.1562 35.6406L20.6797 35.7148L21.2695 35.8594L22.4805 36.0898L23.3984 36.2734L25.1875 36.6797L25.6953 36.7734L25.9766 36.8086L26.3594 36.7734L26.6953 36.6797L26.9297 36.5234L27.082 36.3398L27.1719 36.1484L27.2266 35.9219V35.6836L27.1406 35.4375L26.9297 35.1562L26.6211 34.9609L26.1328 34.7656L24.7188 34.3711L23.3984 34.0625L22.3672 33.8516L21.1758 33.6328L20.1797 33.4961L19.8203 33.4336L19.4883 33.2578L19.2812 33.0273L19.1914 32.7148L19.2148 31.9453L19.3594 30.875L19.5273 29.6016L19.9414 27.5938L20.3984 26.2383L20.6367 25.5977L21.2852 24.1289L21.832 23.125L22.1133 22.3047L22.2305 21.6328V21.0547L22.1719 20.6484L22.0364 20.1333L21.6719 18.5977L21.4219 17.1914L21.1953 15.2734L21.1211 14.0508V12.8164L21.1523 11.7812L21.2461 10.5508L21.3789 9.44141L21.5117 8.53516L21.6211 7.84766L21.8203 6.96875L21.8867 6.60938L21.9648 6.36719L22.1953 5.625L22.5117 4.88281L22.8203 4.32422L23.0586 3.96484L23.3086 3.66797L23.5703 3.46875Z" fill="#DE9A52"/>
<path d="M23.3509 8.63127C23.3674 7.86772 23.5126 7.19228 23.7985 6.55001C24.2132 5.61869 25.0629 5.30926 26.184 5.64258C27.3128 5.97819 28.2238 6.60742 29.1254 7.23865C30.26 8.03307 31.3545 8.86766 32.3313 9.80234C32.9665 10.4102 32.9451 10.8321 32.1466 11.2394C29.8665 12.4027 27.8633 13.8453 25.931 15.3803C24.7641 16.3072 24.1136 16.0978 23.7464 14.7643C23.2795 13.0688 23.3334 11.3415 23.3471 9.61772C23.3495 9.31324 23.349 9.00875 23.3509 8.63127Z" fill="#162831"/>
<path d="M35.2444 25.7183C36.7926 25.1467 38.0798 25.49 39.0239 26.6807C40.2706 28.2532 40.196 30.7645 38.857 32.2921C37.6153 33.7089 35.4275 33.6851 34.2209 32.2418C32.477 30.1559 32.9324 27.0863 35.2444 25.7183Z" fill="#162831"/>
<path d="M70.8599 7.47396C71.8518 6.81066 72.7565 6.1362 73.8774 5.7254C75.2205 5.23313 76.2132 5.59745 76.5721 6.79114C77.1643 8.76123 77.0064 10.7694 76.8584 12.7675C76.7987 13.5725 76.725 14.3869 76.4074 15.1634C76.0139 16.1257 75.4217 16.2903 74.5664 15.5903C72.5959 13.9775 70.5355 12.4722 68.1639 11.2809C67.3785 10.8863 67.3505 10.4478 67.9579 9.83235C68.8074 8.97156 69.8132 8.24276 70.8599 7.47396Z" fill="#162831"/>
<path d="M59.6005 32.8913C57.4152 31.3979 57.4618 28.0574 58.9202 26.443C60.2002 25.0261 62.4132 25.1328 63.6199 26.6511C64.8415 28.1881 64.8397 30.5942 63.6158 32.1341C62.6295 33.375 61.1493 33.6703 59.6005 32.8913Z" fill="#162831"/>
<path d="M45.1544 38.8204C45.533 38.8078 45.8407 38.8201 46.1312 38.7662C46.856 38.6315 47.5143 38.4303 47.7021 37.6972C47.8732 37.0298 47.4611 36.6586 46.8934 36.3033C46.3632 35.9714 45.8537 35.6097 45.5254 35.1051C44.7912 33.9768 45.3729 32.6887 46.8464 32.3888C48.2926 32.0944 49.7833 32.0949 51.2261 32.4127C52.6149 32.7186 53.1624 33.955 52.4757 35.0288C52.1976 35.4637 51.7942 35.7961 51.3328 36.0912C50.2778 36.7662 49.9788 37.3326 50.3154 37.9832C50.6103 38.553 52.002 39.034 52.9252 38.8789C53.7175 38.7459 54.3877 38.4764 54.8446 37.8579C55.2744 37.276 55.7907 37.2558 56.6144 37.6694C57.3199 38.0236 57.1944 38.4909 56.8847 38.9789C55.7559 40.7573 52.7814 41.561 50.4259 40.573C49.3561 40.1244 48.5786 40.1051 47.4877 40.5484C45.0221 41.5503 42.0604 40.7409 40.9726 38.9402C40.5101 38.1746 40.7065 37.7331 41.6369 37.457C42.1403 37.3076 42.555 37.3395 42.8824 37.7728C43.3852 38.4382 44.1457 38.7653 45.1544 38.8204Z" fill="#162831"/>
<path d="M70.3906 47.2383L69.8789 47.582L69.2891 48.0781L68.5589 48.9512L68.1604 49.6543L67.969 50.416L67.8672 51.1992L67.9124 51.8086L67.9805 52.3672L68.1445 52.707L68.4922 53.4492L69.1992 53.9531L69.7734 54.3203L70.293 54.5234L70.7734 54.4922L70.8438 54.375L70.8906 54.2148L70.9258 54.0469L71.0391 53.4258V52.8477L71.0703 52.2188L71.2734 51.5391L71.5547 51.2812H71.9297L72.2578 51.25L72.5938 51.4648L72.8789 51.7461L72.918 52.0586L72.8984 52.6055L72.9531 53.1953L72.918 53.8008L73.0156 54.4531L73.2812 54.8867L73.75 55.0898L74.1445 55.2676L74.5859 55.3281L75 55.3867H75.2617H75.7109L76.5352 55.2676L76.8125 55.168L77.1094 55.0273L77.4375 54.6523L77.5547 54.4297V54.168L77.5977 53.5626V53.293V52.9531V52.6758V52.4766V52.2695L77.7095 51.8438L77.8516 51.5742L78.0391 51.2812L78.3555 51.1406H78.9219L79.3711 51.4727L79.5703 51.8984L79.6602 52.3672L79.6016 53.2461L79.6289 53.8164L79.6953 54.2617L79.7812 54.5195L80.0547 54.498L80.3672 54.4004L81.0352 54.1406L81.5078 53.8789L82.0078 53.4648L82.4531 52.9531L82.7812 52.4414L82.9922 51.957L83.1367 51.418L83.1992 50.793L83.1719 50.2656L83.0117 49.6719L82.8572 49.2642L82.3024 48.4896L81.3708 47.6522L80.3869 46.9719L79.56 46.5566L78.4401 46.1387L77.2468 45.8848L76.1792 45.791H75.1761L74.2229 45.8848L73.5393 46.0059L73.0159 46.1387L72.4261 46.3184L71.805 46.5566L71.137 46.8613L70.793 46.9805L70.3906 47.2383Z" fill="#DE9A52"/>
<path d="M34.7422 53.0469L34.8281 51.3984L37.2148 51.9844L40.2891 52.6523L43.3047 53.1211L45.8555 53.3906L48.2656 53.5352L50.332 53.5625L51.9102 53.5273L53.6562 53.4375L55.3594 53.2891L57.4531 53.0234L60.0391 52.5703L62.2773 52.0664L64.0195 51.6211L64.7617 51.3945L65.2812 51.2461L65.3789 51.4961L65.5234 52.0664L65.6367 52.6953V53.0586L65.3789 53.2461L64.7188 53.3867L63.2305 53.7383L61.6211 54.1367L60.1133 54.5547L59.0156 54.8984L56.8047 55.6641L54.7812 56.5234L53.3516 57.207L52.3164 57.832L51.2344 58.5469L50.3828 59.2188L50.168 59.3398L50.0195 59.3945H49.8555L49.6406 59.3164L48.9961 58.8477L47.8477 58.043L46.6641 57.3477L45.5195 56.75L44.2695 56.1562L42.9336 55.5898L41.9336 55.2227L40.7109 54.7812L39.5117 54.4062L38.4609 54.1016L37.0234 53.7227L35.6875 53.3867L34.957 53.1992L34.7422 53.0469Z" fill="#DE9A52"/>
</svg>
